<?xml version="1.0" encoding="utf-8"?>
<!-- Generator: Adobe Illustrator 16.0.0, SVG Export Plug-In . SVG Version: 6.00 Build 0)  -->
<!DOCTYPE svg PUBLIC "-//W3C//DTD SVG 1.1//EN" "http://www.w3.org/Graphics/SVG/1.1/DTD/svg11.dtd">
<svg version="1.1" id="Layer_1" xmlns="http://www.w3.org/2000/svg" xmlns:xlink="http://www.w3.org/1999/xlink" x="0px" y="0px"
	 width="1141.512px" height="659.623px" viewBox="0 0 1141.512 659.623" enable-background="new 0 0 1141.512 659.623"
	 xml:space="preserve">
<g transform="translate(22.5000185, 22.5000185) ">
	<polygon fill="none" stroke="#000000" stroke-width="0.9" points="-4.5,-4.5 38.02,-4.5 38.02,9.674 80.539,9.674 80.539,-4.5 
		108.886,-4.5 108.886,9.674 137.233,9.674 137.233,-4.5 165.578,-4.5 165.578,9.674 193.925,9.674 193.925,-4.5 222.272,-4.5 
		222.272,9.674 264.791,9.674 264.791,-4.5 307.311,-4.5 307.311,23.846 293.138,23.846 293.138,52.193 307.311,52.193 
		307.311,80.54 293.138,80.54 293.138,108.885 307.311,108.885 307.311,137.232 264.791,137.232 264.791,123.059 222.272,123.059 
		222.272,137.232 193.925,137.232 193.925,123.059 165.578,123.059 165.578,137.232 137.233,137.232 137.233,123.059 
		108.886,123.059 108.886,137.232 80.539,137.232 80.539,123.059 38.02,123.059 38.02,137.232 -4.5,137.232 -4.5,108.885 
		9.673,108.885 9.673,80.54 -4.5,80.54 -4.5,52.193 9.673,52.193 9.673,23.846 -4.5,23.846 	"/>
	<rect x="103.225" y="74.869" fill="none" stroke="#000000" stroke-width="0.9" width="34.016" height="48.188"/>
</g>
<g transform="translate(412.2641185, 22.5000185) ">
	<polygon fill="none" stroke="#000000" stroke-width="0.9" points="-82.453,-4.5 -39.934,-4.5 -39.934,9.674 2.586,9.674 
		2.586,-4.5 30.932,-4.5 30.932,9.674 59.279,9.674 59.279,-4.5 87.626,-4.5 87.626,9.674 115.971,9.674 115.971,-4.5 144.318,-4.5 
		144.318,9.674 186.838,9.674 186.838,-4.5 229.357,-4.5 229.357,23.846 215.184,23.846 215.184,52.193 229.357,52.193 
		229.357,80.54 215.184,80.54 215.184,108.885 229.357,108.885 229.357,137.232 186.838,137.232 186.838,123.059 144.318,123.059 
		144.318,137.232 115.971,137.232 115.971,123.059 87.626,123.059 87.626,137.232 59.279,137.232 59.279,123.059 30.932,123.059 
		30.932,137.232 2.586,137.232 2.586,123.059 -39.934,123.059 -39.934,137.232 -82.453,137.232 -82.453,108.885 -68.28,108.885 
		-68.28,80.54 -82.453,80.54 -82.453,52.193 -68.28,52.193 -68.28,23.846 -82.453,23.846 	"/>
</g>
<g transform="translate(802.0282185, 22.5000185) ">
	<polygon fill="none" stroke="#000000" stroke-width="0.9" points="-146.233,-4.5 -117.886,-4.5 -117.886,9.674 -75.367,9.674 
		-75.367,-4.5 -47.02,-4.5 -47.02,9.674 -18.674,9.674 -18.674,-4.5 9.672,-4.5 9.672,9.674 38.019,9.674 38.019,-4.5 66.366,-4.5 
		66.366,9.674 94.711,9.674 94.711,-4.5 123.058,-4.5 123.058,9.674 151.405,9.674 151.405,-4.5 179.751,-4.5 179.751,9.674 
		208.097,9.674 208.097,-4.5 236.444,-4.5 236.444,9.674 278.964,9.674 278.964,-4.5 307.31,-4.5 307.31,23.846 321.484,23.846 
		321.484,52.193 307.31,52.193 307.31,80.54 321.484,80.54 321.484,108.885 307.31,108.885 307.31,137.232 278.964,137.232 
		278.964,123.059 236.444,123.059 236.444,137.232 208.097,137.232 208.097,123.059 179.751,123.059 179.751,137.232 
		151.405,137.232 151.405,123.059 123.058,123.059 123.058,137.232 94.711,137.232 94.711,123.059 66.366,123.059 66.366,137.232 
		38.019,137.232 38.019,123.059 9.672,123.059 9.672,137.232 -18.674,137.232 -18.674,123.059 -47.02,123.059 -47.02,137.232 
		-75.367,137.232 -75.367,123.059 -117.886,123.059 -117.886,137.232 -146.233,137.232 -146.233,108.885 -160.407,108.885 
		-160.407,80.54 -146.233,80.54 -146.233,52.193 -160.407,52.193 -160.407,23.846 -146.233,23.846 	"/>
</g>
<g transform="translate(802.0282185, 199.6655185) ">
	<polygon fill="none" stroke="#000000" stroke-width="0.9" points="-146.233,-39.933 -117.886,-39.933 -117.886,-25.76 
		-75.367,-25.76 -75.367,-39.933 -47.02,-39.933 -47.02,-25.76 -18.674,-25.76 -18.674,-39.933 9.672,-39.933 9.672,-25.76 
		38.019,-25.76 38.019,-39.933 66.366,-39.933 66.366,-25.76 94.711,-25.76 94.711,-39.933 123.058,-39.933 123.058,-25.76 
		151.405,-25.76 151.405,-39.933 179.751,-39.933 179.751,-25.76 208.097,-25.76 208.097,-39.933 236.444,-39.933 236.444,-25.76 
		278.964,-25.76 278.964,-39.933 307.31,-39.933 307.31,-11.587 321.484,-11.587 321.484,16.76 307.31,16.76 307.31,45.106 
		321.484,45.106 321.484,73.452 307.31,73.452 307.31,101.799 278.964,101.799 278.964,87.626 236.444,87.626 236.444,101.799 
		208.097,101.799 208.097,87.626 179.751,87.626 179.751,101.799 151.405,101.799 151.405,87.626 123.058,87.626 123.058,101.799 
		94.711,101.799 94.711,87.626 66.366,87.626 66.366,101.799 38.019,101.799 38.019,87.626 9.672,87.626 9.672,101.799 
		-18.674,101.799 -18.674,87.626 -47.02,87.626 -47.02,101.799 -75.367,101.799 -75.367,87.626 -117.886,87.626 -117.886,101.799 
		-146.233,101.799 -146.233,73.452 -160.407,73.452 -160.407,45.106 -146.233,45.106 -146.233,16.76 -160.407,16.76 
		-160.407,-11.587 -146.233,-11.587 	"/>
</g>
<g transform="translate(22.5000185, 199.6655185) ">
	<polygon fill="none" stroke="#000000" stroke-width="0.9" points="9.673,-25.76 38.02,-25.76 38.02,-39.933 80.539,-39.933 
		80.539,-25.76 108.886,-25.76 108.886,-39.933 137.233,-39.933 137.233,-25.76 165.578,-25.76 165.578,-39.933 193.925,-39.933 
		193.925,-25.76 222.272,-25.76 222.272,-39.933 264.791,-39.933 264.791,-25.76 293.138,-25.76 293.138,2.586 307.311,2.586 
		307.311,45.106 293.138,45.106 293.138,73.452 307.311,73.452 307.311,101.799 293.138,101.799 293.138,130.146 307.311,130.146 
		307.311,158.492 293.138,158.492 293.138,186.838 307.311,186.838 307.311,215.185 293.138,215.185 293.138,243.531 
		307.311,243.531 307.311,271.878 293.138,271.878 293.138,300.225 307.311,300.225 307.311,328.571 293.138,328.571 
		293.138,356.917 307.311,356.917 307.311,399.437 293.138,399.437 293.138,427.783 264.791,427.783 264.791,441.956 
		222.272,441.956 222.272,427.783 193.925,427.783 193.925,441.956 165.578,441.956 165.578,427.783 137.233,427.783 
		137.233,441.956 108.886,441.956 108.886,427.783 80.539,427.783 80.539,441.956 38.02,441.956 38.02,427.783 9.673,427.783 
		9.673,399.437 -4.5,399.437 -4.5,356.917 9.673,356.917 9.673,328.571 -4.5,328.571 -4.5,300.225 9.673,300.225 9.673,271.878 
		-4.5,271.878 -4.5,243.531 9.673,243.531 9.673,215.185 -4.5,215.185 -4.5,186.838 9.673,186.838 9.673,158.492 -4.5,158.492 
		-4.5,130.146 9.673,130.146 9.673,101.799 -4.5,101.799 -4.5,73.452 9.673,73.452 9.673,45.106 -4.5,45.106 -4.5,2.586 
		9.673,2.586 	"/>
	<rect x="52.193" y="16.76" fill="none" stroke="#000000" stroke-width="0.9" width="204.095" height="204.094"/>
	<circle fill="none" stroke="#000000" stroke-width="0.9" cx="59.28" cy="328.571" r="7.086"/>
</g>
<g transform="translate(412.2641185, 199.6655185) ">
	<polygon fill="none" stroke="#000000" stroke-width="0.9" points="-68.28,-25.76 -39.934,-25.76 -39.934,-39.933 2.586,-39.933 
		2.586,-25.76 30.932,-25.76 30.932,-39.933 59.279,-39.933 59.279,-25.76 87.626,-25.76 87.626,-39.933 115.971,-39.933 
		115.971,-25.76 144.318,-25.76 144.318,-39.933 186.838,-39.933 186.838,-25.76 215.184,-25.76 215.184,2.586 229.357,2.586 
		229.357,45.106 215.184,45.106 215.184,73.452 229.357,73.452 229.357,101.799 215.184,101.799 215.184,130.146 229.357,130.146 
		229.357,158.492 215.184,158.492 215.184,186.838 229.357,186.838 229.357,215.185 215.184,215.185 215.184,243.531 
		229.357,243.531 229.357,271.878 215.184,271.878 215.184,300.225 229.357,300.225 229.357,328.571 215.184,328.571 
		215.184,356.917 229.357,356.917 229.357,399.437 215.184,399.437 215.184,427.783 186.838,427.783 186.838,441.956 
		144.318,441.956 144.318,427.783 115.971,427.783 115.971,441.956 87.626,441.956 87.626,427.783 59.279,427.783 59.279,441.956 
		30.932,441.956 30.932,427.783 2.586,427.783 2.586,441.956 -39.934,441.956 -39.934,427.783 -68.28,427.783 -68.28,399.437 
		-82.453,399.437 -82.453,356.917 -68.28,356.917 -68.28,328.571 -82.453,328.571 -82.453,300.225 -68.28,300.225 -68.28,271.878 
		-82.453,271.878 -82.453,243.531 -68.28,243.531 -68.28,215.185 -82.453,215.185 -82.453,186.838 -68.28,186.838 -68.28,158.492 
		-82.453,158.492 -82.453,130.146 -68.28,130.146 -68.28,101.799 -82.453,101.799 -82.453,73.452 -68.28,73.452 -68.28,45.106 
		-82.453,45.106 -82.453,2.586 -68.28,2.586 	"/>
</g>
</svg>
