<svg xmlns="http://www.w3.org/2000/svg" version="1.1" width="222.7mm" height="152.7mm" viewBox = " 0 0 789.0951369999999 541.0634369999999" >
<!-- Front--> 
<g transform="translate(22.5000185, 22.5000185) " > 
<polygon style="stroke:#000000; fill:none; stroke-width:0.90000074" points="0, 0 54.0354775, 0 54.0354775, 17.716549999999998 108.070955, 17.716549999999998 108.070955, 0 139.960745, 0 139.960745, 17.716549999999998 193.9962225, 17.716549999999998 193.9962225, 0 248.0317, 0 248.0317, 54.0354775 230.31515000000002, 54.0354775 230.31515000000002, 108.070955 248.0317, 108.070955 248.0317, 139.960745 230.31515000000002, 139.960745 230.31515000000002, 193.9962225 248.0317, 193.9962225 248.0317, 248.0317 193.9962225, 248.0317 193.9962225, 230.31515000000002 139.960745, 230.31515000000002 139.960745, 248.0317 108.070955, 248.0317 108.070955, 230.31515000000002 54.0354775, 230.31515000000002 54.0354775, 248.0317 0, 248.0317 0, 193.9962225 17.716549999999998, 193.9962225 17.716549999999998, 139.960745 0, 139.960745 0, 108.070955 17.716549999999998, 108.070955 17.716549999999998, 54.0354775 0, 54.0354775 "/> 
</g>
<!-- Back--> 
<g transform="translate(270.53171849999995, 22.5000185) " > 
<polygon style="stroke:#000000; fill:none; stroke-width:0.90000074" points="0, 0 54.0354775, 0 54.0354775, 17.716549999999998 108.070955, 17.716549999999998 108.070955, 0 139.960745, 0 139.960745, 17.716549999999998 193.9962225, 17.716549999999998 193.9962225, 0 248.0317, 0 248.0317, 54.0354775 230.31515000000002, 54.0354775 230.31515000000002, 108.070955 248.0317, 108.070955 248.0317, 139.960745 230.31515000000002, 139.960745 230.31515000000002, 193.9962225 248.0317, 193.9962225 248.0317, 248.0317 193.9962225, 248.0317 193.9962225, 230.31515000000002 139.960745, 230.31515000000002 139.960745, 248.0317 108.070955, 248.0317 108.070955, 230.31515000000002 54.0354775, 230.31515000000002 54.0354775, 248.0317 0, 248.0317 0, 193.9962225 17.716549999999998, 193.9962225 17.716549999999998, 139.960745 0, 139.960745 0, 108.070955 17.716549999999998, 108.070955 17.716549999999998, 54.0354775 0, 54.0354775 "/> 
</g>
<!-- Left--> 
<g transform="translate(518.5634185, 22.5000185) " > 
<polygon style="stroke:#000000; fill:none; stroke-width:0.90000074" points="17.716549999999998, 0 54.0354775, 0 54.0354775, 17.716549999999998 108.070955, 17.716549999999998 108.070955, 0 139.960745, 0 139.960745, 17.716549999999998 193.9962225, 17.716549999999998 193.9962225, 0 230.31515000000002, 0 230.31515000000002, 54.0354775 248.0317, 54.0354775 248.0317, 108.070955 230.31515000000002, 108.070955 230.31515000000002, 139.960745 248.0317, 139.960745 248.0317, 193.9962225 230.31515000000002, 193.9962225 230.31515000000002, 248.0317 193.9962225, 248.0317 193.9962225, 230.31515000000002 139.960745, 230.31515000000002 139.960745, 248.0317 108.070955, 248.0317 108.070955, 230.31515000000002 54.0354775, 230.31515000000002 54.0354775, 248.0317 17.716549999999998, 248.0317 17.716549999999998, 193.9962225 0, 193.9962225 0, 139.960745 17.716549999999998, 139.960745 17.716549999999998, 108.070955 0, 108.070955 0, 54.0354775 17.716549999999998, 54.0354775 "/> 
</g>
<!-- Right--> 
<g transform="translate(518.5634185, 270.53171849999995) " > 
<polygon style="stroke:#000000; fill:none; stroke-width:0.90000074" points="17.716549999999998, 0 54.0354775, 0 54.0354775, 17.716549999999998 108.070955, 17.716549999999998 108.070955, 0 139.960745, 0 139.960745, 17.716549999999998 193.9962225, 17.716549999999998 193.9962225, 0 230.31515000000002, 0 230.31515000000002, 54.0354775 248.0317, 54.0354775 248.0317, 108.070955 230.31515000000002, 108.070955 230.31515000000002, 139.960745 248.0317, 139.960745 248.0317, 193.9962225 230.31515000000002, 193.9962225 230.31515000000002, 248.0317 193.9962225, 248.0317 193.9962225, 230.31515000000002 139.960745, 230.31515000000002 139.960745, 248.0317 108.070955, 248.0317 108.070955, 230.31515000000002 54.0354775, 230.31515000000002 54.0354775, 248.0317 17.716549999999998, 248.0317 17.716549999999998, 193.9962225 0, 193.9962225 0, 139.960745 17.716549999999998, 139.960745 17.716549999999998, 108.070955 0, 108.070955 0, 54.0354775 17.716549999999998, 54.0354775 "/> 
</g>
<!-- Top--> 
<g transform="translate(22.5000185, 270.53171849999995) " > 
<polygon style="stroke:#000000; fill:none; stroke-width:0.90000074" points="17.716549999999998, 17.716549999999998 54.0354775, 17.716549999999998 54.0354775, 0 108.070955, 0 108.070955, 17.716549999999998 139.960745, 17.716549999999998 139.960745, 0 193.9962225, 0 193.9962225, 17.716549999999998 230.31515000000002, 17.716549999999998 230.31515000000002, 54.0354775 248.0317, 54.0354775 248.0317, 108.070955 230.31515000000002, 108.070955 230.31515000000002, 139.960745 248.0317, 139.960745 248.0317, 193.9962225 230.31515000000002, 193.9962225 230.31515000000002, 230.31515000000002 193.9962225, 230.31515000000002 193.9962225, 248.0317 139.960745, 248.0317 139.960745, 230.31515000000002 108.070955, 230.31515000000002 108.070955, 248.0317 54.0354775, 248.0317 54.0354775, 230.31515000000002 17.716549999999998, 230.31515000000002 17.716549999999998, 193.9962225 0, 193.9962225 0, 139.960745 17.716549999999998, 139.960745 17.716549999999998, 108.070955 0, 108.070955 0, 54.0354775 17.716549999999998, 54.0354775 "/> 
</g>
<!-- Bottom--> 
<g transform="translate(270.53171849999995, 270.53171849999995) " > 
<polygon style="stroke:#000000; fill:none; stroke-width:0.90000074" points="17.716549999999998, 17.716549999999998 54.0354775, 17.716549999999998 54.0354775, 0 108.070955, 0 108.070955, 17.716549999999998 139.960745, 17.716549999999998 139.960745, 0 193.9962225, 0 193.9962225, 17.716549999999998 230.31515000000002, 17.716549999999998 230.31515000000002, 54.0354775 248.0317, 54.0354775 248.0317, 108.070955 230.31515000000002, 108.070955 230.31515000000002, 139.960745 248.0317, 139.960745 248.0317, 193.9962225 230.31515000000002, 193.9962225 230.31515000000002, 230.31515000000002 193.9962225, 230.31515000000002 193.9962225, 248.0317 139.960745, 248.0317 139.960745, 230.31515000000002 108.070955, 230.31515000000002 108.070955, 248.0317 54.0354775, 248.0317 54.0354775, 230.31515000000002 17.716549999999998, 230.31515000000002 17.716549999999998, 193.9962225 0, 193.9962225 0, 139.960745 17.716549999999998, 139.960745 17.716549999999998, 108.070955 0, 108.070955 0, 54.0354775 17.716549999999998, 54.0354775 "/> 
</g></svg>