<?xml version="1.0" encoding="utf-8"?>
<!-- Generator: Adobe Illustrator 16.0.0, SVG Export Plug-In . SVG Version: 6.00 Build 0)  -->
<!DOCTYPE svg PUBLIC "-//W3C//DTD SVG 1.1//EN" "http://www.w3.org/Graphics/SVG/1.1/DTD/svg11.dtd">
<svg version="1.1" xmlns="http://www.w3.org/2000/svg" xmlns:xlink="http://www.w3.org/1999/xlink" x="0px" y="0px"
	 width="631.275px" height="452.925px" viewBox="0 0 631.275 452.925" enable-background="new 0 0 631.275 452.925"
	 xml:space="preserve">
<g id="Layer_1">
	<g transform="translate(22.5000185, 22.5000185) ">
		<polygon fill="none" stroke="#000000" stroke-width="0.9" points="-4.5,-4.5 38.728,-4.5 38.728,9.673 81.957,9.673 81.957,-4.5 
			107.469,-4.5 107.469,9.673 150.697,9.673 150.697,-4.5 193.925,-4.5 193.925,38.728 179.752,38.728 179.752,81.957 
			193.925,81.957 193.925,107.469 179.752,107.469 179.752,150.697 193.925,150.697 193.925,193.925 150.697,193.925 
			150.697,179.752 107.469,179.752 107.469,193.925 81.957,193.925 81.957,179.752 38.728,179.752 38.728,193.925 -4.5,193.925 
			-4.5,150.697 9.673,150.697 9.673,107.469 -4.5,107.469 -4.5,81.957 9.673,81.957 9.673,38.728 -4.5,38.728 		"/>
	</g>
	<g transform="translate(270.53171849999995, 22.5000185) ">
		<polygon fill="none" stroke="#000000" stroke-width="0.9" points="-54.106,-4.5 -10.878,-4.5 -10.878,9.673 32.35,9.673 
			32.35,-4.5 57.862,-4.5 57.862,9.673 101.09,9.673 101.09,-4.5 144.319,-4.5 144.319,38.728 130.145,38.728 130.145,81.957 
			144.319,81.957 144.319,107.469 130.145,107.469 130.145,150.697 144.319,150.697 144.319,193.925 101.09,193.925 101.09,179.752 
			57.862,179.752 57.862,193.925 32.35,193.925 32.35,179.752 -10.878,179.752 -10.878,193.925 -54.106,193.925 -54.106,150.697 
			-39.933,150.697 -39.933,107.469 -54.106,107.469 -54.106,81.957 -39.933,81.957 -39.933,38.728 -54.106,38.728 		"/>
	</g>
	<g transform="translate(518.5634185, 22.5000185) ">
		<polygon fill="none" stroke="#000000" stroke-width="0.9" points="-89.54,-4.5 -60.484,-4.5 -60.484,9.673 -17.257,9.673 
			-17.257,-4.5 8.255,-4.5 8.255,9.673 51.483,9.673 51.483,-4.5 80.539,-4.5 80.539,38.728 94.712,38.728 94.712,81.957 
			80.539,81.957 80.539,107.469 94.712,107.469 94.712,150.697 80.539,150.697 80.539,193.925 51.483,193.925 51.483,179.752 
			8.255,179.752 8.255,193.925 -17.257,193.925 -17.257,179.752 -60.484,179.752 -60.484,193.925 -89.54,193.925 -89.54,150.697 
			-103.713,150.697 -103.713,107.469 -89.54,107.469 -89.54,81.957 -103.713,81.957 -103.713,38.728 -89.54,38.728 		"/>
	</g>
	<g transform="translate(518.5634185, 270.53171849999995) ">
		<polygon fill="none" stroke="#000000" stroke-width="0.9" points="-89.54,-54.106 -60.484,-54.106 -60.484,-39.933 
			-17.257,-39.933 -17.257,-54.106 8.255,-54.106 8.255,-39.933 51.483,-39.933 51.483,-54.106 80.539,-54.106 80.539,-10.878 
			94.712,-10.878 94.712,32.351 80.539,32.351 80.539,57.862 94.712,57.862 94.712,101.091 80.539,101.091 80.539,144.319 
			51.483,144.319 51.483,130.146 8.255,130.146 8.255,144.319 -17.257,144.319 -17.257,130.146 -60.484,130.146 -60.484,144.319 
			-89.54,144.319 -89.54,101.091 -103.713,101.091 -103.713,57.862 -89.54,57.862 -89.54,32.351 -103.713,32.351 -103.713,-10.878 
			-89.54,-10.878 		"/>
	</g>
	<g transform="translate(22.5000185, 270.53171849999995) ">
		<polygon fill="none" stroke="#000000" stroke-width="0.9" points="9.673,-39.933 38.728,-39.933 38.728,-54.106 81.956,-54.106 
			81.956,-39.933 107.469,-39.933 107.469,-54.106 150.697,-54.106 150.697,-39.933 179.752,-39.933 179.752,-10.878 
			193.925,-10.878 193.925,32.351 179.752,32.351 179.752,57.862 193.925,57.862 193.925,101.091 179.752,101.091 179.752,130.146 
			150.697,130.146 150.697,144.319 107.469,144.319 107.469,130.146 81.956,130.146 81.956,144.319 38.728,144.319 38.728,130.146 
			9.673,130.146 9.673,101.091 -4.5,101.091 -4.5,57.862 9.673,57.862 9.673,32.351 -4.5,32.351 -4.5,-10.878 9.673,-10.878 		"/>
	</g>
	<g transform="translate(270.53171849999995, 270.53171849999995) ">
		<polygon fill="none" stroke="#000000" stroke-width="0.9" points="-39.933,-39.933 -10.878,-39.933 -10.878,-54.106 
			32.35,-54.106 32.35,-39.933 57.862,-39.933 57.862,-54.106 101.09,-54.106 101.09,-39.933 130.145,-39.933 130.145,-10.878 
			144.319,-10.878 144.319,32.351 130.145,32.351 130.145,57.862 144.319,57.862 144.319,101.091 130.145,101.091 130.145,130.146 
			101.09,130.146 101.09,144.319 57.862,144.319 57.862,130.146 32.35,130.146 32.35,144.319 -10.878,144.319 -10.878,130.146 
			-39.933,130.146 -39.933,101.091 -54.106,101.091 -54.106,57.862 -39.933,57.862 -39.933,32.351 -54.106,32.351 -54.106,-10.878 
			-39.933,-10.878 		"/>
	</g>
</g>
<g id="Do_not_print_this_layer">
	<text transform="matrix(1 0 0 1 264.1377 443.9253)" font-family="'MyriadPro-Regular'" font-size="30">Boks 70mm2 (220 x 160 mm)</text>
</g>
</svg>
